<?xml version="1.0" encoding="utf-8"?>
<!-- Generator: Adobe Illustrator 14.0.0, SVG Export Plug-In . SVG Version: 6.00 Build 43363)  -->
<!DOCTYPE svg PUBLIC "-//W3C//DTD SVG 1.1//EN" "http://www.w3.org/Graphics/SVG/1.1/DTD/svg11.dtd">
<svg version="1.1" id="Layer_1" xmlns="http://www.w3.org/2000/svg" xmlns:xlink="http://www.w3.org/1999/xlink" x="0px" y="0px"
	 width="236px" height="46px" viewBox="0 0 236 46" enable-background="new 0 0 236 46" xml:space="preserve">
<path fill="#143F56" d="M14.97,15.36c0-6.23,0-7.38-0.08-8.69c-0.08-1.39-0.41-2.05-1.76-2.34C12.8,4.25,12.1,4.2,11.52,4.2
	c-0.45,0-0.7-0.08-0.7-0.37s0.29-0.37,0.9-0.37c2.17,0,4.76,0.12,5.82,0.12c0.98,0,3.57-0.12,5.17-0.12c0.57,0,0.86,0.08,0.86,0.37
	S23.33,4.2,22.84,4.2c-0.45,0-0.7,0.04-1.19,0.12c-1.11,0.21-1.44,0.9-1.52,2.34c-0.08,1.31-0.08,2.46-0.08,8.69v7.59
	c0,1.76,0.12,3.73,0.12,5.78c0,2.34-0.16,4.96-0.98,7.26c-0.86,2.5-3.03,5.33-6.97,7.75c-0.53,0.33-1.19,0.66-2.05,1.07
	c-0.29,0.16-0.62,0.25-0.82,0.25c-0.16,0-0.33-0.12-0.33-0.33s0.21-0.37,0.9-0.74c0.53-0.29,1.15-0.74,1.97-1.56
	c3.12-3.16,3.08-7.26,3.08-15.29V15.36z"/>
<path fill="#143F56" d="M44.49,32.08c4.18,0,5.78-1.03,6.44-2.25c0.37-0.66,0.62-1.39,0.74-1.97c0.08-0.41,0.16-0.66,0.41-0.66
	c0.33,0,0.41,0.29,0.41,1.27c0,1.31-0.53,3.98-0.82,5c-0.21,0.74-0.49,1.07-1.23,1.07c-6.85,0-13.74-0.21-22.02-0.21
	c-0.45,0-0.7-0.12-0.7-0.41s0.12-0.49,0.62-1.23c5.78-9.02,11.85-18.29,17.34-26.94h-8.04c-2.09,0-4.59,0.12-5.9,0.86
	c-1.35,0.74-2.09,2.25-2.21,3.2c-0.08,0.57-0.25,0.74-0.49,0.74c-0.29,0-0.33-0.21-0.33-0.7c0-0.94,0.62-4.67,0.82-5.9
	c0.08-0.57,0.25-0.78,0.49-0.78c0.37,0,0.62,0.25,1.64,0.29c3.9,0.16,5.86,0.12,7.54,0.12H51.7c0.41,0,0.7,0.12,0.7,0.33
	c0,0.25-0.16,0.49-0.33,0.78c-5.66,9.18-11.89,18.57-17.67,27.39H44.49z"/>
<path fill="#24739D" d="M98.32,31.71c0,1.11-0.04,1.19-0.53,1.48c-2.67,1.39-6.68,1.85-9.88,1.85c-10.04,0-18.94-4.76-18.94-16.07
	c0-6.56,3.4-11.15,7.13-13.41c3.94-2.38,7.58-2.67,11.03-2.67c2.83,0,6.44,0.49,7.26,0.66c0.86,0.16,2.3,0.41,3.24,0.45
	c0.49,0.04,0.57,0.21,0.57,0.49c0,0.45-0.29,1.6-0.29,6.72c0,0.66-0.12,0.86-0.45,0.86c-0.29,0-0.37-0.21-0.41-0.53
	c-0.12-0.94-0.33-2.25-1.39-3.4c-1.23-1.31-4.51-3.2-9.14-3.2c-2.25,0-5.25,0.16-8.12,2.54c-2.3,1.93-3.77,5-3.77,10.05
	c0,8.81,5.62,15.42,14.27,15.42c1.07,0,2.5,0,3.48-0.45c0.62-0.29,0.78-0.82,0.78-1.52v-3.85c0-2.05,0-3.61-0.04-4.84
	c-0.04-1.39-0.41-2.05-1.76-2.34c-0.33-0.08-1.02-0.12-1.6-0.12c-0.37,0-0.61-0.08-0.61-0.33c0-0.33,0.29-0.41,0.86-0.41
	c2.13,0,4.72,0.12,5.95,0.12c1.27,0,3.44-0.12,4.8-0.12c0.53,0,0.82,0.08,0.82,0.41c0,0.25-0.25,0.33-0.53,0.33
	c-0.33,0-0.62,0.04-1.11,0.12c-1.11,0.21-1.52,0.9-1.56,2.34c-0.04,1.23-0.04,2.87-0.04,4.92V31.71z"/>
<path fill="#24739D" d="M110.5,25.69c-0.21,0-0.25,0.04-0.33,0.25l-1.93,4.67c-0.37,0.86-0.53,1.72-0.53,2.13
	c0,0.62,0.33,0.98,1.44,0.98h0.53c0.45,0,0.53,0.16,0.53,0.37c0,0.29-0.21,0.37-0.57,0.37c-1.19,0-2.87-0.12-4.02-0.12
	c-0.37,0-2.3,0.12-4.18,0.12c-0.45,0-0.66-0.08-0.66-0.37c0-0.21,0.12-0.37,0.41-0.37c0.33,0,0.74-0.04,1.07-0.04
	c1.64-0.25,2.25-1.31,2.99-3.08l9.43-21.93c0.41-0.98,0.7-1.39,1.07-1.39c0.53,0,0.7,0.33,1.07,1.11
	c0.86,1.93,6.89,16.19,9.18,21.48c1.39,3.16,2.42,3.61,3.08,3.73c0.53,0.08,0.94,0.12,1.35,0.12c0.33,0,0.49,0.12,0.49,0.37
	c0,0.29-0.21,0.37-1.56,0.37c-1.27,0-3.9,0-6.93-0.08c-0.66-0.04-1.07-0.04-1.07-0.29c0-0.21,0.08-0.33,0.45-0.37
	c0.25-0.04,0.49-0.37,0.33-0.78l-2.79-7.01c-0.08-0.2-0.21-0.25-0.37-0.25H110.5z M118.2,23.76c0.16,0,0.21-0.08,0.16-0.21
	l-3.4-8.86c-0.04-0.12-0.08-0.33-0.16-0.33c-0.12,0-0.16,0.21-0.21,0.33l-3.48,8.81c-0.08,0.16,0,0.25,0.12,0.25H118.2z"/>
<path fill="#24739D" d="M132.47,34.01c-0.57-0.25-0.7-0.41-0.7-1.19c0-1.89,0.16-4.06,0.21-4.63c0-0.53,0.16-0.9,0.45-0.9
	c0.33,0,0.37,0.33,0.37,0.57c0,0.45,0.12,1.19,0.33,1.8c0.78,2.58,3.49,3.44,5.74,3.44c3.12,0,5-1.97,5-4.43
	c0-1.52-0.37-3.03-3.57-4.92l-2.09-1.23c-4.26-2.5-5.66-4.84-5.66-7.91c0-4.26,4.1-7.01,9.1-7.01c2.34,0,4.18,0.33,5.13,0.57
	c0.33,0.08,0.49,0.21,0.49,0.45c0,0.45-0.12,1.43-0.12,4.18c0,0.74-0.16,1.11-0.45,1.11c-0.25,0-0.37-0.21-0.37-0.62
	c0-0.33-0.16-1.39-0.94-2.3c-0.53-0.66-1.68-1.64-4.02-1.64c-2.58,0-4.92,1.35-4.92,3.73c0,1.56,0.57,2.79,3.81,4.59l1.48,0.82
	c4.76,2.62,6.23,5.29,6.23,8.45c0,2.58-0.98,4.67-3.61,6.52c-1.72,1.23-4.1,1.44-6.03,1.44C136.24,34.91,134.03,34.71,132.47,34.01z
	"/>
<path fill="#24739D" d="M160.47,19.74h0.16c1.23-1.31,6.48-6.48,7.54-7.67c1.03-1.15,1.8-1.97,1.8-2.58c0-0.37-0.16-0.62-0.49-0.7
	C169.17,8.71,169,8.63,169,8.43c0-0.25,0.21-0.33,0.57-0.33c0.78,0,2.75,0.08,3.73,0.08c1.11,0,3.12-0.08,4.22-0.08
	c0.37,0,0.62,0.08,0.62,0.33s-0.21,0.37-0.53,0.37c-0.53,0-1.43,0.16-2.09,0.41c-1.15,0.41-2.3,1.15-3.81,2.58
	c-1.15,1.07-6.52,6.15-7.63,7.42c1.27,1.64,8.36,9.02,9.76,10.33c1.6,1.43,2.99,2.95,4.92,3.73c1.07,0.45,1.8,0.45,2.21,0.45
	c0.29,0,0.49,0.16,0.49,0.37c0,0.25-0.21,0.37-0.86,0.37h-3.16c-1.07,0-1.72,0-2.5-0.08c-1.93-0.16-3.12-0.9-4.67-2.26
	c-1.56-1.35-8.49-9.39-9.27-10.45l-0.37-0.49h-0.16v3.16c0,3.2,0,5.95,0.08,7.46c0.08,0.98,0.41,1.64,1.31,1.8
	c0.49,0.08,1.31,0.12,1.76,0.12c0.29,0,0.49,0.21,0.49,0.37c0,0.25-0.29,0.37-0.7,0.37c-2.01,0-4.59-0.12-5.49-0.12
	c-0.82,0-3.12,0.12-4.55,0.12c-0.45,0-0.7-0.12-0.7-0.37c0-0.16,0.12-0.37,0.57-0.37c0.53,0,0.94-0.04,1.27-0.12
	c0.74-0.16,0.94-0.82,1.07-1.85c0.16-1.47,0.16-4.22,0.16-7.42v-6.15c0-5.29,0-6.27-0.04-7.38c-0.08-1.19-0.41-1.56-1.56-1.89
	c-0.29-0.08-0.9-0.12-1.43-0.12c-0.37,0-0.62-0.12-0.62-0.37s0.29-0.33,0.82-0.33c1.89,0,4.18,0.08,5.04,0.08s3.44-0.08,4.63-0.08
	c0.53,0,0.78,0.08,0.78,0.33s-0.21,0.37-0.49,0.37c-0.37,0-0.57,0.04-1.03,0.12c-0.98,0.16-1.27,0.66-1.35,1.89
	c-0.04,1.11-0.04,2.09-0.04,7.38V19.74z"/>
<path fill="#24739D" d="M183.84,18.19c0-5.29,0-6.27-0.04-7.38c-0.08-1.19-0.45-1.6-1.23-1.85c-0.41-0.12-0.86-0.16-1.31-0.16
	c-0.37,0-0.57-0.08-0.57-0.41c0-0.21,0.29-0.29,0.86-0.29c1.35,0,3.81,0.08,4.84,0.08c0.9,0,3.24-0.08,4.63-0.08
	c0.45,0,0.74,0.08,0.74,0.29c0,0.33-0.21,0.41-0.57,0.41s-0.66,0.04-1.07,0.12c-0.98,0.16-1.27,0.66-1.35,1.89
	c-0.08,1.11-0.08,2.09-0.08,7.38v6.15c0,3.36,0,6.15,0.16,7.63c0.12,0.94,0.37,1.48,1.43,1.64c0.49,0.08,1.31,0.12,1.85,0.12
	c0.41,0,0.57,0.21,0.57,0.37c0,0.25-0.29,0.37-0.7,0.37c-2.38,0-4.84-0.12-5.82-0.12c-0.82,0-3.28,0.12-4.71,0.12
	c-0.45,0-0.7-0.12-0.7-0.37c0-0.16,0.12-0.37,0.57-0.37c0.53,0,0.94-0.04,1.27-0.12c0.74-0.16,0.94-0.66,1.07-1.68
	c0.16-1.44,0.16-4.22,0.16-7.58V18.19z"/>
<path fill="#24739D" d="M202.79,29.71c0.08,2.71,0.53,3.53,1.23,3.77c0.62,0.21,1.31,0.25,1.89,0.25c0.41,0,0.61,0.16,0.61,0.37
	c0,0.29-0.33,0.37-0.82,0.37c-2.34,0-4.02-0.12-4.67-0.12c-0.33,0-2.05,0.12-3.9,0.12c-0.49,0-0.82-0.04-0.82-0.37
	c0-0.21,0.25-0.37,0.57-0.37c0.49,0,1.15-0.04,1.64-0.16c0.94-0.25,1.07-1.19,1.11-4.22l0.33-20.66c0-0.7,0.25-1.19,0.62-1.19
	c0.45,0,0.94,0.53,1.56,1.15c0.45,0.45,5.86,5.99,11.11,11.11c2.46,2.42,7.26,7.34,7.79,7.83h0.16l-0.37-15.5
	c-0.04-2.13-0.37-2.75-1.23-3.08c-0.53-0.21-1.39-0.21-1.89-0.21c-0.45,0-0.57-0.16-0.57-0.37c0-0.29,0.37-0.33,0.9-0.33
	c1.89,0,3.81,0.08,4.59,0.08c0.41,0,1.76-0.08,3.53-0.08c0.49,0,0.82,0.04,0.82,0.33c0,0.21-0.21,0.37-0.62,0.37
	c-0.37,0-0.66,0-1.11,0.12c-0.98,0.29-1.27,0.9-1.31,2.87l-0.41,21.98c0,0.78-0.29,1.11-0.57,1.11c-0.62,0-1.11-0.37-1.48-0.74
	c-2.25-2.09-6.77-6.4-10.54-10.04c-3.94-3.77-7.75-8-8.45-8.61h-0.12L202.79,29.71z"/>
</svg>
